<svg version="1.1" id="Layer_1"
	xmlns="http://www.w3.org/2000/svg"
	xmlns:xlink="http://www.w3.org/1999/xlink" x="0" y="0" viewBox="0 0 564.2 235.9" xml:space="preserve">
	<style>
    .st0{fill:#dd052b}
	</style>
	<path class="st0" d="M27 26.9h123.6v123.6H27z"/>
	<path class="st0" d="M6.5 6.4h164.7v164.7H6.5V6.4zM.1 177.5h177.5V0H.1v177.5z"/>
	<path fill="#c6c6c6" d="M6.5 171.1L27 150.6h123.6l20.6 20.5z"/>
	<path fill="#ededed" d="M6.5 6.4L27 26.9v123.7L6.5 171.1z"/>
	<path fill="#fff" d="M6.5 6.4L27 26.9h123.6l20.6-20.5z"/>
	<path fill="#9d9d9c" d="M150.6 26.9l20.6-20.5v164.7l-20.6-20.5z"/>
	<defs>
		<path id="SVGID_1_" d="M.1 0h564v177.5H.1z"/>
	</defs>
	<clipPath id="SVGID_2_">
		<use xlink:href="#SVGID_1_" overflow="visible"/>
	</clipPath>
	<path d="M106.1 99.4h14.2v2.6c0 10.3-1.9 17-5.7 20.1-3.8 3-12.1 4.5-25 4.5-14.7 0-23.7-2.4-27.1-7.2-3.4-4.8-5.1-17.6-5.1-38.4 0-12.3 2.3-20.3 6.9-24.2C68.9 52.9 78.4 51 93 51c10.6 0 17.7 1.6 21.2 4.8 3.6 3.2 5.3 9.5 5.3 18.9l.1 1.7h-14.2v-2c0-4.9-.9-8-2.7-9.3-1.8-1.4-6-2-12.5-2-8.7 0-14 1.1-15.8 3.2-1.8 2.1-2.6 8.5-2.6 19 0 14.2.8 22.6 2.4 25.3s6.7 3.9 15.3 3.9c7 0 11.5-.7 13.6-2.2s3.1-4.6 3.1-9.6l-.1-3.3z" clip-path="url(#SVGID_2_)" fill="#fff"/>
	<defs>
		<path id="SVGID_3_" d="M.1 0h564v177.5H.1z"/>
	</defs>
	<clipPath id="SVGID_4_">
		<use xlink:href="#SVGID_3_" overflow="visible"/>
	</clipPath>
	<path clip-path="url(#SVGID_4_)" fill="#dd052b" d="M220.3 26.9h123.6v123.6H220.3z"/>
	<defs>
		<path id="SVGID_5_" d="M.1 0h564v177.5H.1z"/>
	</defs>
	<clipPath id="SVGID_6_">
		<use xlink:href="#SVGID_5_" overflow="visible"/>
	</clipPath>
	<path d="M370.9 177.5H193.4V0h177.5v177.5zM364.5 6.4H199.8v164.7h164.7V6.4z" clip-path="url(#SVGID_6_)" fill="#dd052b"/>
	<defs>
		<path id="SVGID_7_" d="M.1 0h564v177.5H.1z"/>
	</defs>
	<clipPath id="SVGID_8_">
		<use xlink:href="#SVGID_7_" overflow="visible"/>
	</clipPath>
	<path clip-path="url(#SVGID_8_)" fill="#c6c6c6" d="M199.8 171.1l20.5-20.5h123.6l20.6 20.5z"/>
	<defs>
		<path id="SVGID_9_" d="M.1 0h564v177.5H.1z"/>
	</defs>
	<clipPath id="SVGID_10_">
		<use xlink:href="#SVGID_9_" overflow="visible"/>
	</clipPath>
	<path clip-path="url(#SVGID_10_)" fill="#ededed" d="M199.8 6.4l20.5 20.5v123.7l-20.5 20.5z"/>
	<g>
		<defs>
			<path id="SVGID_11_" d="M.1 0h564v177.5H.1z"/>
		</defs>
		<clipPath id="SVGID_12_">
			<use xlink:href="#SVGID_11_" overflow="visible"/>
		</clipPath>
		<path clip-path="url(#SVGID_12_)" fill="#fff" d="M199.8 6.4l20.5 20.5h123.6l20.6-20.5z"/>
	</g>
	<g>
		<defs>
			<path id="SVGID_13_" d="M.1 0h564v177.5H.1z"/>
		</defs>
		<clipPath id="SVGID_14_">
			<use xlink:href="#SVGID_13_" overflow="visible"/>
		</clipPath>
		<path clip-path="url(#SVGID_14_)" fill="#9d9d9c" d="M343.9 26.9l20.6-20.5v164.7l-20.6-20.5z"/>
	</g>
	<g>
		<defs>
			<path id="SVGID_15_" d="M.1 0h564v177.5H.1z"/>
		</defs>
		<clipPath id="SVGID_16_">
			<use xlink:href="#SVGID_15_" overflow="visible"/>
		</clipPath>
		<path clip-path="url(#SVGID_16_)" fill="#fff" d="M270.6 63.5v19.1h34.9V93h-34.9v21h37.1v11.9h-51.2V51.6h50.9v11.9z"/>
	</g>
	<g>
		<defs>
			<path id="SVGID_17_" d="M.1 0h564v177.5H.1z"/>
		</defs>
		<clipPath id="SVGID_18_">
			<use xlink:href="#SVGID_17_" overflow="visible"/>
		</clipPath>
		<path clip-path="url(#SVGID_18_)" fill="#dd052b" d="M413.6 26.9h123.6v123.6H413.6z"/>
	</g>
	<g>
		<defs>
			<path id="SVGID_19_" d="M.1 0h564v177.5H.1z"/>
		</defs>
		<clipPath id="SVGID_20_">
			<use xlink:href="#SVGID_19_" overflow="visible"/>
		</clipPath>
		<path d="M564.1 177.5H386.7V0h177.5v177.5h-.1zM557.8 6.4H393.1v164.7h164.7V6.4z" clip-path="url(#SVGID_20_)" fill="#dd052b"/>
	</g>
	<g>
		<defs>
			<path id="SVGID_21_" d="M.1 0h564v177.5H.1z"/>
		</defs>
		<clipPath id="SVGID_22_">
			<use xlink:href="#SVGID_21_" overflow="visible"/>
		</clipPath>
		<path clip-path="url(#SVGID_22_)" fill="#c6c6c6" d="M393 171.1l20.6-20.5h123.6l20.6 20.5z"/>
	</g>
	<g>
		<defs>
			<path id="SVGID_23_" d="M.1 0h564v177.5H.1z"/>
		</defs>
		<clipPath id="SVGID_24_">
			<use xlink:href="#SVGID_23_" overflow="visible"/>
		</clipPath>
		<path clip-path="url(#SVGID_24_)" fill="#ededed" d="M393 6.4l20.6 20.5v123.7L393 171.1z"/>
	</g>
	<g>
		<defs>
			<path id="SVGID_25_" d="M.1 0h564v177.5H.1z"/>
		</defs>
		<clipPath id="SVGID_26_">
			<use xlink:href="#SVGID_25_" overflow="visible"/>
		</clipPath>
		<path clip-path="url(#SVGID_26_)" fill="#fff" d="M393 6.4l20.6 20.5h123.6l20.6-20.5z"/>
	</g>
	<g>
		<defs>
			<path id="SVGID_27_" d="M.1 0h564v177.5H.1z"/>
		</defs>
		<clipPath id="SVGID_28_">
			<use xlink:href="#SVGID_27_" overflow="visible"/>
		</clipPath>
		<path clip-path="url(#SVGID_28_)" fill="#9d9d9c" d="M537.2 26.9l20.6-20.5v164.7l-20.6-20.5z"/>
	</g>
	<g>
		<defs>
			<path id="SVGID_29_" d="M.1 0h564v177.5H.1z"/>
		</defs>
		<clipPath id="SVGID_30_">
			<use xlink:href="#SVGID_29_" overflow="visible"/>
		</clipPath>
		<path clip-path="url(#SVGID_30_)" fill="#fff" d="M464.9 63.5v20h33.3v11.9h-33.3v30.5h-14.1V51.6H500v11.9z"/>
	</g>
	<path d="M554.4 236.3c4.5 0 8.8-2.4 8.8-7.2 0-3.4-2.1-5.3-5.3-6.1l-3.4-.9c-1.7-.4-3-.9-3-2.1 0-1.5 1.4-2.1 3-2.1 1.7 0 3.5.7 4.5 2.1l3.6-3.1c-1.9-2.4-4.2-3.3-8.1-3.3-4.9 0-8.3 2.9-8.3 7 0 3.5 2.2 5.3 5.2 6.1l3.8 1c1.4.4 2.5.9 2.5 2.2 0 1.5-1.8 2.1-3.4 2.1-2.3 0-4.4-1.2-5.6-2.8l-3.5 3.1c2 2.9 5.3 4 9.2 4m-28.2-.4h5.5v-17.5h6.2V214H520v4.4h6.2v17.5zm-26.5-11.8v-5.8h3.4c2 0 3.2 1 3.2 2.9 0 1.8-1.2 2.9-3.2 2.9h-3.4zm-5.5 11.8h5.5v-7.7h2.5l4.3 7.7h6l-5-8.5c2.8-1.2 4.1-3.8 4.1-6.4 0-4.1-2.9-6.9-7.8-6.9h-9.6v21.8zm-26 0h16.2v-4.5h-10.7V227h8.9v-4.4h-8.9v-4.2h10.6V214h-16.1v21.9zm-21.3-11.8v-5.8h3.5c2 0 3.2 1 3.2 2.9 0 1.8-1.2 2.9-3.2 2.9h-3.5zm-5.5 11.8h5.5v-7.6h4.5c5.3 0 7.6-3.7 7.6-7.3 0-4.1-2.8-7-7.6-7h-9.9l-.1 21.9zm-28.4 0h5.8l4.1-7.4 4.3 7.4h6l-6.8-11.3 6.3-10.6h-5.6l-3.8 6.8-3.8-6.8h-6l6.3 10.5-6.8 11.4zm-23.9 0h16.2v-4.5h-10.7V227h8.9v-4.4h-8.9v-4.2h10.6V214h-16.1v21.9zm-38.4 0h15.9v-4.5h-10.4V214h-5.5v21.9zm-22-8.4l2.5-7.9h.1l2.5 7.9h-5.1zm-7.9 8.4h5.2l1.4-4.1h7.8l1.3 4.1h5.6l-7.7-21.9h-5.9l-7.7 21.9zm-16 .4c4.2 0 8.7-2.1 8.7-7.2V228h-5.2v.5c0 2.3-1.9 3.3-3.6 3.3-2.2 0-3.9-1.3-3.9-3.5v-6.6c0-2.5 1.9-3.5 3.8-3.5 1.7 0 3.6 1 3.6 3.3v.5h5.2v-1c0-5.1-4.6-7.2-8.9-7.2-4.9 0-9.2 2.7-9.2 8v6.7c.2 5.4 4.7 7.8 9.5 7.8m-24.4-.4h5.5V214h-5.5v21.9zm-21.8-11.8v-5.8h3.4c2 0 3.2 1 3.2 2.9 0 1.8-1.2 2.9-3.2 2.9h-3.4zm-5.5 11.8h5.5v-7.7h2.5l4.3 7.7h6l-5-8.5c2.8-1.2 4.1-3.8 4.1-6.4 0-4.1-2.9-6.9-7.8-6.9h-9.6v21.8zm-20.7 0h5.5v-17.5h6.2V214h-17.9v4.4h6.2v17.5zm-23.1.4c4.2 0 8.7-2.1 8.7-7.2V228h-5.2v.5c0 2.3-1.9 3.3-3.6 3.3-2.2 0-3.9-1.3-3.9-3.5v-6.6c0-2.5 1.9-3.5 3.8-3.5 1.7 0 3.6 1 3.6 3.3v.5h5.2v-1c0-5.1-4.6-7.2-8.9-7.2-4.9 0-9.2 2.7-9.2 8v6.7c.2 5.4 4.7 7.8 9.5 7.8m-34.4-.4h16.2v-4.5h-10.7V227h8.9v-4.4h-8.9v-4.2H191V214h-16.1v21.9zm-24.9 0h15.9v-4.5h-10.4V214H150v21.9zm-26 0h16.2v-4.5h-10.7V227h8.9v-4.4h-8.9v-4.2h10.6V214H124v21.9zm-35.2-11.8v-5.8h3.4c2 0 3.2 1 3.2 2.9 0 1.8-1.2 2.9-3.2 2.9h-3.4zm-5.5 11.8h5.5v-7.7h2.5l4.3 7.7h6l-5-8.5c2.8-1.2 4.1-3.8 4.1-6.4 0-4.1-2.9-6.9-7.8-6.9h-9.6v21.8zm-19.3.4c5.1 0 9.2-2.9 9.2-8.3v-13.9h-5.4v13.8c0 2.6-1.3 4-3.6 4-2.5 0-3.7-1.5-3.7-4v-13.8H55v14.1c-.1 5.4 3.4 8.1 9 8.1m-27.9-4.5c-2.2 0-3.9-1.3-3.9-3.6v-6.4c0-2.5 1.8-3.6 3.8-3.6 2.1 0 3.9 1.3 3.9 3.6v6.5c0 2.4-1.8 3.5-3.8 3.5m0 4.5c4.6 0 9.3-2.6 9.3-8.3v-6.1c0-5.7-4.5-8.3-9.4-8.3-4.7 0-9.2 2.7-9.2 8.3v6.3c0 5.7 4.4 8.1 9.3 8.1m-28.8-.4h5.4v-8.6l7.2-13.3h-5.5l-4.2 8.6-4.4-8.6H0l7.2 13.2v8.7h.1z"/>
	<path fill="none" d="M.1 0h564.1v236.3H.1z"/>
</svg>
